<?xml version="1.0" encoding="UTF-8" standalone="no"?>
<!DOCTYPE svg PUBLIC "-//W3C//DTD SVG 1.1//EN"
 "http://www.w3.org/Graphics/SVG/1.1/DTD/svg11.dtd">
<!-- Generated by graphviz version 12.1.2 (20240928.0832)
 -->
<!-- Title: dependency&#45;cruiser output Pages: 1 -->
<svg width="217pt" height="320pt"
 viewBox="0.00 0.00 217.00 320.00" xmlns="http://www.w3.org/2000/svg" xmlns:xlink="http://www.w3.org/1999/xlink">
<g id="graph0" class="graph" transform="scale(1 1) rotate(0) translate(4 316)">
<title>dependency&#45;cruiser output</title>
<polygon fill="white" stroke="none" points="-4,4 -4,-316 213,-316 213,4 -4,4"/>
<g id="clust1" class="cluster">
<title>cluster_src</title>
<path fill="#ffffff" stroke="black" stroke-width="2" d="M20,-8C20,-8 189,-8 189,-8 195,-8 201,-14 201,-20 201,-20 201,-292 201,-292 201,-298 195,-304 189,-304 189,-304 20,-304 20,-304 14,-304 8,-298 8,-292 8,-292 8,-20 8,-20 8,-14 14,-8 20,-8"/>
<text text-anchor="middle" x="104.5" y="-291.45" font-family="Helvetica,sans-Serif" font-weight="bold" font-size="9.00">src</text>
</g>
<g id="clust2" class="cluster">
<title>cluster_src/components</title>
<path fill="#ffffff" stroke="black" stroke-width="2" d="M38,-16C38,-16 101,-16 101,-16 107,-16 113,-22 113,-28 113,-28 113,-90 113,-90 113,-96 107,-102 101,-102 101,-102 38,-102 38,-102 32,-102 26,-96 26,-90 26,-90 26,-28 26,-28 26,-22 32,-16 38,-16"/>
<text text-anchor="middle" x="69.5" y="-89.45" font-family="Helvetica,sans-Serif" font-weight="bold" font-size="9.00">components</text>
</g>
<g id="clust3" class="cluster">
<title>cluster_src/components/ui</title>
<path fill="#ffffff" stroke="black" stroke-width="2" d="M46,-24C46,-24 93,-24 93,-24 99,-24 105,-30 105,-36 105,-36 105,-64 105,-64 105,-70 99,-76 93,-76 93,-76 46,-76 46,-76 40,-76 34,-70 34,-64 34,-64 34,-36 34,-36 34,-30 40,-24 46,-24"/>
<text text-anchor="middle" x="69.5" y="-63.45" font-family="Helvetica,sans-Serif" font-weight="bold" font-size="9.00">ui</text>
</g>
<g id="clust4" class="cluster">
<title>cluster_src/lib</title>
<path fill="#ffffff" stroke="black" stroke-width="2" d="M135,-24C135,-24 181,-24 181,-24 187,-24 193,-30 193,-36 193,-36 193,-64 193,-64 193,-70 187,-76 181,-76 181,-76 135,-76 135,-76 129,-76 123,-70 123,-64 123,-64 123,-36 123,-36 123,-30 129,-24 135,-24"/>
<text text-anchor="middle" x="158" y="-63.45" font-family="Helvetica,sans-Serif" font-weight="bold" font-size="9.00">lib</text>
</g>
<g id="clust5" class="cluster">
<title>cluster_src/pages</title>
<path fill="#ffffff" stroke="black" stroke-width="2" d="M28,-110C28,-110 181,-110 181,-110 187,-110 193,-116 193,-122 193,-122 193,-180 193,-180 193,-186 187,-192 181,-192 181,-192 28,-192 28,-192 22,-192 16,-186 16,-180 16,-180 16,-122 16,-122 16,-116 22,-110 28,-110"/>
<text text-anchor="middle" x="104.5" y="-179.45" font-family="Helvetica,sans-Serif" font-weight="bold" font-size="9.00">pages</text>
</g>
<!-- src/components/ui/dialog.tsx -->
<g id="node1" class="node">
<title>src/components/ui/dialog.tsx</title>
<g id="a_node1"><a xlink:href="src/components/ui/dialog.tsx" xlink:title="dialog.tsx">
<path fill="#bbfeff" stroke="black" d="M91.08,-49.88C91.08,-49.88 47.92,-49.88 47.92,-49.88 44.96,-49.88 42,-46.92 42,-43.96 42,-43.96 42,-38.04 42,-38.04 42,-35.08 44.96,-32.12 47.92,-32.12 47.92,-32.12 91.08,-32.12 91.08,-32.12 94.04,-32.12 97,-35.08 97,-38.04 97,-38.04 97,-43.96 97,-43.96 97,-46.92 94.04,-49.88 91.08,-49.88"/>
<text text-anchor="start" x="50" y="-37.33" font-family="Helvetica,sans-Serif" font-size="9.00">dialog.tsx</text>
</a>
</g>
</g>
<!-- src/lib/utils.ts -->
<g id="node2" class="node">
<title>src/lib/utils.ts</title>
<g id="a_node2"><a xlink:href="src/lib/utils.ts" xlink:title="utils.ts">
<path fill="#ddfeff" stroke="black" d="M179.08,-49.88C179.08,-49.88 136.92,-49.88 136.92,-49.88 133.96,-49.88 131,-46.92 131,-43.96 131,-43.96 131,-38.04 131,-38.04 131,-35.08 133.96,-32.12 136.92,-32.12 136.92,-32.12 179.08,-32.12 179.08,-32.12 182.04,-32.12 185,-35.08 185,-38.04 185,-38.04 185,-43.96 185,-43.96 185,-46.92 182.04,-49.88 179.08,-49.88"/>
<text text-anchor="start" x="145.25" y="-37.33" font-family="Helvetica,sans-Serif" font-size="9.00">utils.ts</text>
</a>
</g>
</g>
<!-- src/components/ui/dialog.tsx&#45;&gt;src/lib/utils.ts -->
<g id="edge1" class="edge">
<title>src/components/ui/dialog.tsx&#45;&gt;src/lib/utils.ts</title>
<path fill="none" stroke="#000000" stroke-width="2" stroke-opacity="0.200000" d="M97.39,-41C105.11,-41 113.63,-41 121.76,-41"/>
<polygon fill="#000000" fill-opacity="0.200000" stroke="#000000" stroke-width="2" stroke-opacity="0.200000" points="121.69,-43.1 127.69,-41 121.69,-38.9 121.69,-43.1"/>
</g>
<!-- src/index.css -->
<g id="node3" class="node">
<title>src/index.css</title>
<g id="a_node3"><a xlink:href="src/index.css" xlink:title="index.css">
<path fill="#ffffcc" stroke="black" d="M179.21,-217.88C179.21,-217.88 136.79,-217.88 136.79,-217.88 133.83,-217.88 130.88,-214.92 130.88,-211.96 130.88,-211.96 130.88,-206.04 130.88,-206.04 130.88,-203.08 133.83,-200.12 136.79,-200.12 136.79,-200.12 179.21,-200.12 179.21,-200.12 182.17,-200.12 185.12,-203.08 185.12,-206.04 185.12,-206.04 185.12,-211.96 185.12,-211.96 185.12,-214.92 182.17,-217.88 179.21,-217.88"/>
<text text-anchor="start" x="138.88" y="-205.32" font-family="Helvetica,sans-Serif" font-size="9.00">index.css</text>
</a>
</g>
</g>
<!-- src/main.tsx -->
<g id="node4" class="node">
<title>src/main.tsx</title>
<g id="a_node4"><a xlink:href="src/main.tsx" xlink:title="main.tsx">
<path fill="#bbfeff" stroke="black" d="M90.58,-217.88C90.58,-217.88 48.42,-217.88 48.42,-217.88 45.46,-217.88 42.5,-214.92 42.5,-211.96 42.5,-211.96 42.5,-206.04 42.5,-206.04 42.5,-203.08 45.46,-200.12 48.42,-200.12 48.42,-200.12 90.58,-200.12 90.58,-200.12 93.54,-200.12 96.5,-203.08 96.5,-206.04 96.5,-206.04 96.5,-211.96 96.5,-211.96 96.5,-214.92 93.54,-217.88 90.58,-217.88"/>
<text text-anchor="start" x="52.62" y="-205.32" font-family="Helvetica,sans-Serif" font-size="9.00">main.tsx</text>
</a>
</g>
</g>
<!-- src/main.tsx&#45;&gt;src/index.css -->
<g id="edge2" class="edge">
<title>src/main.tsx&#45;&gt;src/index.css</title>
<path fill="none" stroke="#000000" stroke-width="2" stroke-opacity="0.200000" d="M96.92,-209C104.65,-209 113.22,-209 121.42,-209"/>
<polygon fill="#000000" fill-opacity="0.200000" stroke="#000000" stroke-width="2" stroke-opacity="0.200000" points="121.41,-211.1 127.41,-209 121.41,-206.9 121.41,-211.1"/>
</g>
<!-- src/pages/QRComponent.tsx -->
<g id="node5" class="node">
<title>src/pages/QRComponent.tsx</title>
<g id="a_node5"><a xlink:href="src/pages/QRComponent.tsx" xlink:title="no&#45;orphans">
<path fill="#ccffcc" stroke="orange" d="M109.08,-135.88C109.08,-135.88 29.92,-135.88 29.92,-135.88 26.96,-135.88 24,-132.92 24,-129.96 24,-129.96 24,-124.04 24,-124.04 24,-121.08 26.96,-118.12 29.92,-118.12 29.92,-118.12 109.08,-118.12 109.08,-118.12 112.04,-118.12 115,-121.08 115,-124.04 115,-124.04 115,-129.96 115,-129.96 115,-132.92 112.04,-135.88 109.08,-135.88"/>
<text text-anchor="start" x="32" y="-123.33" font-family="Helvetica,sans-Serif" font-size="9.00" fill="orange">QRComponent.tsx</text>
</a>
</g>
</g>
<!-- src/pages/Test.tsx -->
<g id="node6" class="node">
<title>src/pages/Test.tsx</title>
<g id="a_node6"><a xlink:href="src/pages/Test.tsx" xlink:title="Test.tsx">
<path fill="#bbfeff" stroke="black" d="M179.08,-165.88C179.08,-165.88 136.92,-165.88 136.92,-165.88 133.96,-165.88 131,-162.92 131,-159.96 131,-159.96 131,-154.04 131,-154.04 131,-151.08 133.96,-148.12 136.92,-148.12 136.92,-148.12 179.08,-148.12 179.08,-148.12 182.04,-148.12 185,-151.08 185,-154.04 185,-154.04 185,-159.96 185,-159.96 185,-162.92 182.04,-165.88 179.08,-165.88"/>
<text text-anchor="start" x="143" y="-153.32" font-family="Helvetica,sans-Serif" font-size="9.00">Test.tsx</text>
</a>
</g>
</g>
<!-- src/pages/index.tsx -->
<g id="node7" class="node">
<title>src/pages/index.tsx</title>
<g id="a_node7"><a xlink:href="src/pages/index.tsx" xlink:title="index.tsx">
<path fill="#bbfeff" stroke="black" d="M90.58,-165.88C90.58,-165.88 48.42,-165.88 48.42,-165.88 45.46,-165.88 42.5,-162.92 42.5,-159.96 42.5,-159.96 42.5,-154.04 42.5,-154.04 42.5,-151.08 45.46,-148.12 48.42,-148.12 48.42,-148.12 90.58,-148.12 90.58,-148.12 93.54,-148.12 96.5,-151.08 96.5,-154.04 96.5,-154.04 96.5,-159.96 96.5,-159.96 96.5,-162.92 93.54,-165.88 90.58,-165.88"/>
<text text-anchor="start" x="51.5" y="-153.32" font-family="Helvetica,sans-Serif" font-size="9.00">index.tsx</text>
</a>
</g>
</g>
<!-- src/pages/index.tsx&#45;&gt;src/pages/Test.tsx -->
<g id="edge3" class="edge">
<title>src/pages/index.tsx&#45;&gt;src/pages/Test.tsx</title>
<path fill="none" stroke="#000000" stroke-width="2" stroke-opacity="0.200000" d="M96.92,-157C104.8,-157 113.57,-157 121.91,-157"/>
<polygon fill="#000000" fill-opacity="0.200000" stroke="#000000" stroke-width="2" stroke-opacity="0.200000" points="121.71,-159.1 127.71,-157 121.71,-154.9 121.71,-159.1"/>
</g>
<!-- src/router.ts -->
<g id="node8" class="node">
<title>src/router.ts</title>
<g id="a_node8"><a xlink:href="src/router.ts" xlink:title="no&#45;orphans">
<path fill="#ccffcc" stroke="orange" d="M90.58,-247.88C90.58,-247.88 48.42,-247.88 48.42,-247.88 45.46,-247.88 42.5,-244.92 42.5,-241.96 42.5,-241.96 42.5,-236.04 42.5,-236.04 42.5,-233.08 45.46,-230.12 48.42,-230.12 48.42,-230.12 90.58,-230.12 90.58,-230.12 93.54,-230.12 96.5,-233.08 96.5,-236.04 96.5,-236.04 96.5,-241.96 96.5,-241.96 96.5,-244.92 93.54,-247.88 90.58,-247.88"/>
<text text-anchor="start" x="53" y="-235.32" font-family="Helvetica,sans-Serif" font-size="9.00" fill="orange">router.ts</text>
</a>
</g>
</g>
<!-- src/vite&#45;env.d.ts -->
<g id="node9" class="node">
<title>src/vite&#45;env.d.ts</title>
<g id="a_node9"><a xlink:href="src/vite-env.d.ts" xlink:title="vite&#45;env.d.ts">
<path fill="#ccffcc" stroke="black" d="M95.96,-277.88C95.96,-277.88 43.04,-277.88 43.04,-277.88 40.08,-277.88 37.12,-274.92 37.12,-271.96 37.12,-271.96 37.12,-266.04 37.12,-266.04 37.12,-263.08 40.08,-260.12 43.04,-260.12 43.04,-260.12 95.96,-260.12 95.96,-260.12 98.92,-260.12 101.88,-263.08 101.88,-266.04 101.88,-266.04 101.88,-271.96 101.88,-271.96 101.88,-274.92 98.92,-277.88 95.96,-277.88"/>
<text text-anchor="start" x="45.12" y="-265.32" font-family="Helvetica,sans-Serif" font-size="9.00">vite&#45;env.d.ts</text>
</a>
</g>
</g>
</g>
</svg>
